<?xml version="1.0" standalone="no"?>
<!DOCTYPE svg PUBLIC "-//W3C//DTD SVG 20010904//EN"
 "http://www.w3.org/TR/2001/REC-SVG-20010904/DTD/svg10.dtd">
<svg version="1.0" xmlns="http://www.w3.org/2000/svg"
 width="512.000000pt" height="512.000000pt" viewBox="0 0 512.000000 512.000000"
 preserveAspectRatio="xMidYMid meet">
<metadata>
Created by potrace 1.14, written by Peter Selinger 2001-2017
</metadata>
<g transform="translate(0.000000,512.000000) scale(0.100000,-0.100000)"
fill="#000000" stroke="none">
<path d="M480 5109 c-114 -16 -244 -84 -322 -165 -52 -56 -105 -148 -131 -229
l-22 -70 0 -2085 0 -2085 22 -70 c59 -186 193 -319 378 -378 l70 -22 2085 0
2085 0 70 22 c186 59 319 193 378 378 l22 70 0 2085 0 2085 -22 70 c-58 183
-188 314 -373 378 l-65 22 -2060 1 c-1133 1 -2085 -2 -2115 -7z m257 -758
c258 -77 645 -120 900 -101 233 18 383 61 485 142 20 16 38 25 41 21 2 -5 91
-358 198 -785 107 -428 196 -778 199 -778 3 0 92 350 199 778 107 427 196 780
198 785 3 4 18 -4 35 -18 114 -96 335 -148 633 -147 320 0 688 62 881 147 49
21 55 22 49 7 -242 -594 -290 -2238 -94 -3204 25 -126 71 -298 94 -360 7 -17
-6 -18 -193 -18 -299 0 -498 -25 -612 -76 -143 -65 -154 -147 -37 -272 l52
-55 -37 6 c-104 16 -223 155 -294 342 -54 145 -66 222 -71 482 -14 673 69 813
486 813 84 0 102 3 98 14 -85 220 -86 519 -2 718 7 17 4 16 -47 -1 -96 -33
-190 -45 -338 -46 -152 0 -246 13 -339 48 -35 12 -56 16 -60 9 -3 -6 -139
-497 -300 -1091 -162 -595 -298 -1081 -301 -1081 -3 0 -139 486 -301 1081
-161 594 -297 1085 -300 1090 -3 5 -28 1 -60 -9 -188 -65 -527 -63 -685 3 -20
8 -38 15 -40 15 -2 0 4 -19 12 -42 64 -180 68 -448 8 -626 -13 -40 -24 -75
-24 -77 0 -3 46 -5 103 -5 196 0 299 -31 370 -110 82 -92 106 -209 114 -565 6
-275 -1 -370 -38 -510 -65 -250 -218 -455 -340 -455 -18 0 -12 9 35 60 86 94
96 162 30 220 -45 39 -89 57 -194 80 -127 28 -281 40 -498 40 -181 0 -194 1
-187 18 18 48 67 231 89 338 176 843 167 2273 -19 2999 -18 72 -43 154 -54
183 -12 29 -21 55 -21 57 0 2 24 -7 53 -20 29 -12 85 -32 124 -44z"/>
</g>
</svg>
