<svg width="1152" height="493" viewBox="0 0 1152 493" fill="none" xmlns="http://www.w3.org/2000/svg">
<path fill-rule="evenodd" clip-rule="evenodd" d="M136 17H176H976H1016L1056 37L1136 17L1116 97L1136 137V177V317V357L1116 397L1136 477L1056 457L1016 477H976H176H136L96 457L16 477L36 397L16 357V317V177V137L36 97L16 17L96 37L136 17ZM56 57H116L161 27H991L1036 57H1096V117L1126 162V332L1096 377V437H1036L991 467H161L116 437H56V377L26 332V162L56 117V57ZM47 48L106 47L26 27L46 107L47 48ZM47 446L106 447L26 467L46 387L47 446ZM1106 447H1046L1126 467L1106 387V447ZM1106 47.5L1046 47L1126 27L1106 107V47.5ZM1006.5 27L1036 47V37L1006.5 27ZM1106 117L1126 147L1116 117H1106ZM1126 347L1106 377H1116L1126 347ZM1036 447L1006.5 467L1036 457V447ZM145.5 467L116 447V457L145.5 467ZM46 377L26 347L36 377H46ZM26 147L46 117H36L26 147ZM116 47L145.5 27L116 37V47Z" fill="#959ba7"/>
</svg>
