<svg width="556" height="556" viewBox="0 0 556 556" fill="none" xmlns="http://www.w3.org/2000/svg">
<path d="M216.388 41.6958C197.227 44.8894 179.13 59.7927 172.21 78.2444C170.259 83.567 168.662 89.067 168.662 90.309C168.662 91.9058 165.113 92.6154 155.888 92.6154C124.307 92.6154 99.1131 117.099 98.7583 147.793C98.5809 154.358 99.1131 161.632 99.8228 164.116C100.887 168.197 100.178 168.906 91.6615 172.632C79.7743 177.777 67.1775 190.374 60.7903 203.148C56.7097 211.487 56 215.035 56 228.874C56 242.358 56.7097 246.439 60.6129 254.6C63.0968 260.1 67.8872 267.552 71.0807 271.1L76.7582 277.665L71.0807 284.229C67.8872 287.778 63.0968 295.229 60.6129 300.729C56.7097 309.068 56 312.794 56 326.455C56.1774 340.117 56.8871 343.843 61.1452 352.536C67.3549 365.665 78.8872 377.198 91.3066 382.52C100.178 386.423 100.887 387.133 99.8228 391.214C99.1131 393.698 98.5809 400.795 98.7583 407.182C98.9357 428.827 110.823 447.279 130.694 457.037C140.452 461.827 144.355 462.714 155.355 462.892C164.759 462.892 168.662 463.601 168.662 465.198C168.662 471.408 176.823 487.908 183.743 495.537C210.71 525.521 260.211 518.424 278.13 482.053L283.098 471.94L283.63 281.213C283.985 105.035 283.808 89.7767 280.969 80.7283C272.808 54.4701 244.243 37.2603 216.388 41.6958ZM242.291 56.5991C252.404 60.8572 260.033 67.7766 265.533 77.5347L270.679 86.938L271.211 177.955C271.743 266.665 271.566 268.971 268.372 267.197C264.291 265.068 252.049 251.584 252.049 249.455C252.049 246.971 246.727 242.181 244.066 242.181C242.646 242.181 240.695 243.778 239.63 245.729C237.146 250.52 244.775 265.245 253.646 272.52L260.033 277.665L253.646 282.81C244.775 290.084 237.146 304.81 239.63 309.6C242.824 315.633 247.969 313.859 252.582 304.988C254.178 301.971 258.791 296.471 263.049 292.746L270.679 285.826L271.211 369.036C271.566 414.988 271.211 456.505 270.679 461.472C269.082 474.424 260.388 488.263 249.566 495.005C241.759 499.795 239.275 500.327 226.323 500.327C213.372 500.327 210.888 499.795 203.259 495.005C180.726 481.166 174.694 452.601 189.597 431.133C195.098 423.327 207.34 414.988 216.211 413.214C220.823 412.327 221.888 412.682 221.888 415.166C221.888 419.601 230.049 433.085 233.42 434.504C234.84 435.037 237.146 435.037 238.565 434.504C243.356 432.73 243.356 427.94 238.388 421.02C231.824 411.262 231.824 399.553 238.388 389.794C243.888 382.165 243.356 377.02 237.146 377.02C232.001 377.02 225.791 383.762 222.775 392.278C220.823 398.133 219.404 399.375 214.081 400.44C195.63 404.343 178.952 419.069 171.855 437.875L167.597 448.875L158.017 449.408C144.533 450.295 136.017 447.279 126.613 438.585C115.968 429.004 111.887 419.956 111.887 405.94C111.887 392.101 112.952 389.44 118.807 389.44C121.291 389.44 126.436 388.553 130.162 387.488C136.017 385.891 136.904 385.004 136.371 380.923C135.839 376.133 135.662 376.133 121.468 375.956C111 375.778 104.791 374.714 98.4034 371.875C72.1452 360.165 60.7903 329.649 73.3872 303.923C76.0485 298.423 80.8388 291.681 83.6776 289.197L89.1776 284.762H134.065C172.565 284.762 179.485 284.407 181.791 281.923C183.388 280.504 184.63 278.552 184.63 277.665C184.63 276.778 183.388 274.826 181.791 273.407C179.485 270.923 172.565 270.568 134.065 270.568H89.1776L83.6776 266.133C80.8388 263.649 76.0485 256.907 73.3872 251.407C61.5 227.277 71.0807 197.471 95.0325 184.874C100.178 182.035 106.565 180.793 118.984 180.084C135.662 179.197 135.839 179.197 136.371 174.406C136.904 170.326 136.017 169.438 130.162 167.842C126.436 166.777 121.291 165.89 118.807 165.89C112.952 165.89 111.887 163.229 111.887 149.39C111.887 135.374 115.968 126.325 126.613 116.745C136.017 108.051 144.533 105.035 158.017 105.922L167.597 106.454L171.855 117.454C178.952 136.261 195.63 150.987 214.081 154.89C219.582 155.955 220.823 157.196 222.952 163.229C225.614 171.213 234.84 180.439 238.565 179.019C243.356 177.245 243.356 172.455 238.388 165.535C231.824 155.777 231.824 144.067 238.388 134.309C243.356 127.39 243.356 122.599 238.565 120.825C237.146 120.293 235.017 120.293 233.775 120.825C230.404 122.067 221.888 135.906 221.888 139.809C221.888 142.825 221.001 143.18 216.211 142.116C202.017 139.277 188.888 127.39 183.743 112.841C173.807 84.4541 195.452 54.1152 225.791 54.1152C231.469 54.1152 238.92 55.3572 242.291 56.5991Z" fill="black"/>
<path d="M165.291 158.616C160.855 161.455 160.678 177.777 164.936 190.197C167.065 196.229 168.662 201.552 168.662 202.084C168.662 204.745 152.517 208.648 142.049 208.294C128.92 207.939 126.081 208.826 126.081 213.616C126.081 219.471 131.049 221.6 144.533 221.6C154.468 221.6 159.259 220.536 167.42 216.81L177.71 212.197L185.694 218.229C199.888 229.052 215.146 231.181 216.211 222.487C216.743 218.229 215.856 217.519 206.985 214.681C187.291 208.471 175.759 193.035 174.872 171.745C174.517 158.616 171.501 154.713 165.291 158.616Z" fill="black"/>
<path d="M198.114 329.826C194.388 331.246 188.356 334.794 184.63 337.81L177.888 343.31L167.42 338.52C159.259 334.617 154.646 333.73 144.355 333.73C130.871 333.907 126.081 336.036 126.081 341.714C126.081 346.504 128.92 347.391 142.049 347.036C153.226 346.681 168.839 350.585 168.662 353.778C168.485 354.31 167.065 359.278 165.114 364.601C160.855 376.665 160.501 391.569 164.404 395.472C167.597 398.665 168.662 398.843 172.033 396.714C173.63 395.649 174.694 391.214 174.872 383.762C175.404 370.988 178.42 362.827 185.517 354.31C190.485 348.278 202.727 341.181 211.775 339.052C216.033 337.988 216.743 337.101 216.211 333.02C215.856 329.117 214.614 328.23 210.356 327.875C207.517 327.52 202.017 328.584 198.114 329.826Z" fill="black"/>
<path d="M344.308 44.8894C338.985 46.4862 333.663 53.0508 333.663 57.6637C333.663 65.1154 339.872 71.8573 346.792 71.8573C351.05 71.8573 354.244 73.6315 359.921 79.4864C366.84 86.5832 367.373 87.8252 367.373 96.6962C367.373 103.793 366.486 107.164 363.824 110.003C361.873 111.954 359.744 116.212 359.211 119.406C358.324 124.019 359.034 125.793 363.647 130.583C368.437 135.196 370.211 135.906 375.002 135.019C378.195 134.487 382.099 132.18 383.873 130.229C387.953 125.083 387.776 115.858 383.34 111.777C380.324 109.116 379.792 106.277 379.792 95.0994V81.438L370.921 72.7444C364.711 66.5347 362.05 62.6315 362.05 59.2605C362.05 50.3895 352.292 42.4056 344.308 44.8894Z" fill="black"/>
<path d="M315.743 87.8251C310.598 90.8412 308.114 99.5348 310.598 105.39C311.663 108.228 313.792 111.067 315.211 111.599C317.34 112.309 317.695 121.535 317.695 165.18V217.697L313.082 223.197C301.727 236.681 318.582 253.003 332.598 242.003C338.276 237.568 338.808 228.697 333.663 222.132C330.292 217.874 330.114 215.035 330.114 165.89C330.114 116.745 330.292 113.906 333.663 109.648C343.421 97.2284 329.227 80.0186 315.743 87.8251Z" fill="black"/>
<path d="M410.841 91.551C402.147 96.5187 400.018 108.051 406.405 114.438C409.421 117.454 409.954 120.293 409.954 131.825V145.664L418.825 154.358C425.212 160.745 427.696 164.471 427.696 168.019C427.696 178.664 441.889 183.987 450.938 176.713C460.163 169.261 453.776 152.761 441.534 152.938C437.099 152.938 433.905 151.342 429.115 146.729C422.55 140.519 422.373 139.809 422.373 128.277C422.373 121.712 423.083 116.212 424.147 116.212C427.163 116.212 431.421 105.745 430.179 101.309C428.05 92.9703 417.76 87.8251 410.841 91.551Z" fill="black"/>
<path d="M354.066 173.164C348.389 176.358 346.082 180.261 346.082 186.648C346.082 198.181 359.921 203.681 369.679 196.051C373.227 193.213 376.776 192.503 387.244 192.503H400.373L413.147 205.455C422.728 215.035 425.921 219.471 425.921 223.197C425.921 228.519 431.421 234.907 436.212 235.261C447.212 235.971 453.244 231.181 453.244 221.955C453.244 213.971 448.276 208.471 441.179 208.471C436.567 208.471 433.196 205.987 421.486 194.277L407.292 180.084H390.615C376.421 180.084 373.227 179.551 370.211 176.713C365.421 172.277 358.502 170.68 354.066 173.164Z" fill="black"/>
<path d="M477.196 206.519C471.696 210.955 471.696 221.068 477.018 226.745C480.035 229.939 480.922 232.955 480.922 240.939C480.922 250.874 480.567 251.407 471.518 260.81L462.115 270.568H450.05C440.647 270.568 436.921 269.858 433.55 267.02C418.825 255.487 401.97 275.536 415.631 288.31C420.599 292.923 427.696 292.923 433.55 288.31C436.921 285.649 440.647 284.762 449.163 284.762H460.341L470.631 294.875C480.744 304.81 480.922 305.342 480.922 314.746C480.922 322.375 480.035 325.391 477.018 328.584C466.018 340.294 478.97 358.746 493.164 351.472C501.325 347.214 503.277 335.859 496.889 330.004C493.873 327.343 493.341 324.504 493.341 312.794V298.778L483.228 288.133L473.115 277.487L483.228 267.374L493.341 257.084V243.423C493.341 232.068 493.873 229.229 496.889 226.213C499.018 224.084 500.438 220.358 500.438 216.455C500.438 204.568 486.776 198.713 477.196 206.519Z" fill="black"/>
<path d="M386.002 235.971C383.34 238.455 381.566 242.358 381.566 245.197C381.566 248.745 378.905 252.826 371.453 260.278L361.34 270.568H349.098C339.518 270.568 335.969 269.858 332.421 267.02C317.695 255.487 300.84 275.536 314.501 288.31C319.469 292.923 326.566 292.923 332.421 288.31C335.969 285.471 339.518 284.762 349.098 284.762H361.34L371.453 295.052C378.55 302.149 381.566 306.584 381.566 309.778C381.566 317.584 387.953 323.794 395.582 323.794C411.195 323.794 415.454 304.81 401.437 297.358C399.308 296.117 395.937 295.584 394.341 296.117C392.211 296.826 388.308 294.342 381.921 287.778L372.695 278.375L381.921 269.326C388.486 262.939 393.276 259.923 397.889 259.213C405.518 257.794 409.954 252.649 409.954 245.197C409.954 238.455 402.857 231.536 395.76 231.536C392.389 231.536 388.663 233.132 386.002 235.971Z" fill="black"/>
<path d="M314.679 313.149C312.55 314.923 310.421 318.294 309.711 320.246C308.292 324.681 311.663 333.73 315.211 335.149C317.34 335.859 317.695 345.085 317.695 388.73V441.246L313.082 446.746C309.534 451.004 308.824 453.311 309.534 457.569C310.953 464.666 316.63 469.279 323.727 469.279C335.26 469.279 341.647 454.198 333.663 446.214C330.292 442.843 330.114 440.359 330.114 390.149C330.114 340.294 330.292 337.456 333.663 333.197C344.131 319.891 326.921 301.617 314.679 313.149Z" fill="black"/>
<path d="M429.47 323.794C427.341 325.923 425.921 329.649 425.921 333.197C425.921 337.988 423.792 341.004 413.857 350.939L401.792 362.827H387.244C375.002 362.827 372.163 362.294 369.147 359.278C367.018 357.149 363.292 355.73 359.744 355.73C347.324 355.73 341.469 370.811 350.518 379.682C356.018 385.359 362.227 385.359 368.792 379.682C373.582 375.601 375.534 375.246 390.615 375.246H407.292L420.776 361.762C431.421 351.117 435.679 348.101 440.115 347.746C452.357 346.681 458.212 330.891 449.163 323.617C443.663 319.181 433.905 319.359 429.47 323.794Z" fill="black"/>
<path d="M431.599 379.327C429.47 381.633 427.696 385.359 427.696 387.843C427.696 390.682 424.679 395.117 418.825 400.972L409.954 409.666V424.214C409.954 436.279 409.421 439.117 406.405 441.779C398.599 448.875 405.163 465.73 415.808 465.73C421.486 465.73 428.76 459.876 430.179 454.198C431.421 449.585 427.163 439.117 424.147 439.117C423.083 439.117 422.373 433.617 422.373 427.053C422.373 415.52 422.728 414.633 428.583 408.956C433.196 404.52 436.567 402.746 441.002 402.569C452.18 402.214 458.567 392.101 453.599 382.52C449.163 374.004 437.986 372.407 431.599 379.327Z" fill="black"/>
<path d="M367.905 421.375C358.324 425.279 356.195 438.408 364.002 445.504C366.486 447.811 367.373 450.827 367.373 458.456C367.373 468.037 367.018 468.924 359.744 476.021C354.066 481.521 350.695 483.472 346.614 483.472C336.856 483.472 329.937 497.134 335.969 504.94C338.631 508.489 345.018 511.86 348.744 511.86C353.711 511.86 362.05 502.102 362.05 496.424C362.05 492.698 364.356 488.972 370.921 482.585L379.792 473.892V460.23C379.792 449.053 380.324 446.214 383.34 443.553C389.728 437.875 387.776 426.343 379.615 422.262C373.937 419.246 373.405 419.246 367.905 421.375Z" fill="black"/>
</svg>
