<svg width="1139" height="873" viewBox="0 0 1139 873" fill="none" xmlns="http://www.w3.org/2000/svg">
<rect width="1139" height="873" fill="white"/>
<path d="M233.051 450.787C223.151 443.757 211.864 438.939 199.953 436.66L166.583 428.606C157.893 426.921 149.43 424.217 141.368 420.551C138.496 419.131 136.095 416.905 134.456 414.143C132.815 411.382 132.006 408.203 132.125 404.989C132.043 401.489 132.856 398.027 134.486 394.932C136.116 391.837 138.509 389.213 141.436 387.312C148.954 382.733 157.666 380.521 166.447 380.964C174.555 380.705 182.611 382.365 189.963 385.811C194.545 388.162 198.392 391.739 201.078 396.147C203.764 400.555 205.186 405.623 205.186 410.791H244.13C244.283 401.685 242.31 392.668 238.368 384.466C234.426 376.264 228.625 369.104 221.429 363.559C206.306 352.425 187.91 346.683 169.165 347.247C144.767 347.247 126.213 352.98 113.639 364.515C107.52 369.925 102.651 376.613 99.3758 384.113C96.1003 391.612 94.4969 399.738 94.6777 407.924C94.6777 427.036 101.202 441.073 114.251 450.037C127.312 457.404 141.546 462.438 156.321 464.916L176.71 469.489C185.936 471.165 194.851 474.249 203.148 478.635C205.688 480.116 207.789 482.25 209.234 484.817C210.68 487.384 211.417 490.292 211.371 493.242C211.529 498.379 209.94 503.417 206.863 507.525C203.787 511.632 199.407 514.563 194.448 515.833C186.926 518.161 179.072 519.222 171.205 518.974C155.233 518.974 144.019 515.015 137.223 506.961C133.034 501.107 130.52 494.216 129.951 487.031H91.5514C91.1315 496.151 92.8788 505.241 96.6486 513.547C100.418 521.856 106.103 529.143 113.232 534.809C127.685 546.412 147.531 552.213 172.768 552.213C197.438 552.213 216.604 546.343 230.129 534.535C236.628 529.184 241.839 522.426 245.369 514.768C248.9 507.108 250.66 498.746 250.518 490.307C250.905 482.805 249.526 475.316 246.49 468.45C243.455 461.583 238.851 455.532 233.051 450.787Z" fill="#393D40"/>
<path d="M313.851 352.834H272.937V548.245H313.851V352.834Z" fill="#393D40"/>
<path d="M497.498 381.709C489.49 370.096 477.911 361.441 464.535 357.07C454.809 354.177 444.707 352.751 434.564 352.838H351.105V547.361H434.564C447.687 548.045 460.736 545 472.215 538.578C483.694 532.155 493.14 522.615 499.469 511.051C510.335 490.953 515.683 468.316 514.964 445.459C514.896 434.619 513.665 423.818 511.294 413.242C508.832 401.914 504.141 391.193 497.498 381.709ZM474.051 450.646C473.643 476.514 466.235 499.243 448.36 508.866C440.76 512.605 432.347 514.364 423.894 513.986H391.951V387.17C391.951 387.17 426.748 387.17 428.379 387.17C437.308 386.677 446.216 388.462 454.274 392.357C471.467 402.458 473.914 425.529 474.051 450.578C474.119 449.758 474.119 451.396 474.051 450.646Z" fill="#393D40"/>
<path d="M543.495 352.834V387.166V433.374V467.706V513.914V548.245H584.409H677.044V513.914H584.409V467.706H677.044V433.374H584.409V387.166H677.044V352.834H584.409H543.495Z" fill="#393D40"/>
<path d="M1047.45 410.236C1047.36 394.992 1041.27 380.404 1030.51 369.65C1019.75 358.896 1005.2 352.852 990.017 352.834H903.908V548.245H944.685V476.578H990.017C1005.2 476.561 1019.75 470.516 1030.51 459.763C1041.27 449.009 1047.36 434.42 1047.45 419.177V410.236ZM1010.47 419.382C1010.47 425.446 1008.08 431.262 1003.81 435.55C999.535 439.838 993.745 442.247 987.707 442.247H944.685V387.166H987.707C993.745 387.166 999.535 389.575 1003.81 393.863C1008.08 398.151 1010.47 403.966 1010.47 410.031V419.382Z" fill="#393D40"/>
<path d="M822.014 320.616H862.792V352.627C862.792 355.034 861.839 357.343 860.144 359.045C858.45 360.749 856.151 361.704 853.752 361.704H821.878V320.752L822.014 320.616Z" fill="#DC4097"/>
<path d="M707.426 483.267C707.426 491.806 709.102 500.262 712.357 508.15C715.613 516.038 720.385 523.203 726.401 529.238C732.416 535.272 739.557 540.057 747.414 543.319C755.272 546.58 763.693 548.254 772.195 548.245H863.13V392.83H822.351V513.708H785.041C781.323 513.735 777.612 513.393 773.962 512.685C769.313 511.457 764.977 509.252 761.241 506.216C757.503 503.181 754.45 499.383 752.282 495.076C749.525 486.439 748.306 477.382 748.679 468.32V352.834H707.902L707.426 483.267Z" fill="#393D40"/>
</svg>
